#!OML:ASF H:\Male1\Project 1\Capture day 1\Session 1\Male1.ASF
:FULLY-SPECIFIED
:DEGREES
113
root 32.7644 15.3444 1.30599 8.8531 95.0797 10.814
lowerback 11.2275 0.820294 0.596582
upperback 6.37769 1.43599 -1.39878
thorax 0.40676 0.888511 -1.93507
lowerneck -1.75737 14.4748 14.6649
upperneck -0.84304 19.5251 -17.1894
head 3.21078 9.66916 -6.3554
rclavicle -3.67752e-015 -1.98785e-015
rhumerus -56.2981 11.84 -86.2648
rradius 80.9881
rwrist -37.6961
rhand -36.4035 8.59944
rfingers 7.12502
rthumb -9.49912 -21.1665
lclavicle -3.67752e-015 -1.98785e-015
lhumerus -37.3531 -1.35235 78.2181
lradius 59.706
lwrist 19.1759
lhand -21.666 5.52765
lfingers 7.12502
lthumb 4.73132 35.4548
rfemur -13.7919 13.4542 26.104
rtibia 35.4694
rfoot -23.4767 -27.3825
rtoes -15.4378
lfemur -15.2592 -17.2488 -17.0053
ltibia 36.1235
lfoot -18.6444 13.3511
ltoes -7.28718
114
root 32.8588 15.3535 1.32491 4.38043 95.0452 6.18879
lowerback 10.825 1.07618 0.616474
upperback 6.43949 1.77846 -1.48452
thorax 0.70633 1.0649 -2.05782
lowerneck -0.98058 15.2018 15.3413
upperneck -1.06408 20.6053 -17.7158
head 3.31774 10.2377 -6.52061
rclavicle -2.83268e-014 1.03368e-014
rhumerus -56.073 11.2215 -85.9072
rradius 80.4981
rwrist -37.6418
rhand -36.2954 8.70827
rfingers 7.12502
rthumb -9.3948 -21.0624
lclavicle -2.83268e-014 1.03368e-014
lhumerus -36.8962 -0.630203 77.6898
lradius 55.5518
lwrist 17.1274
lhand -21.7171 6.47395
lfingers 7.12502
lthumb 4.68196 36.4022
rfemur -13.3986 13.7327 25.8268
rtibia 35.2814
rfoot -24.2712 -27.4192
rtoes -14.6097
lfemur -14.7225 -17.5793 -17.5114
ltibia 35.8301
lfoot -18.913 13.8207
ltoes -7.69632
115
root 32.9405 15.3598 1.34396 2.00097 94.989 3.57797
lowerback 10.463 1.23681 0.644782
upperback 6.35717 1.98425 -1.54506
thorax 0.828493 1.16616 -2.14639
lowerneck 0.541626 15.9186 16.4053
upperneck -1.74871 21.7396 -18.5031
head 3.26465 10.8764 -6.8741
rclavicle 3.89618e-014 -1.70955e-014
rhumerus -55.8887 11.0309 -85.8204
rradius 79.7611
rwrist -37.648
rhand -36.2551 9.16374
rfingers 7.12502
rthumb -9.35598 -20.6086
lclavicle 3.89618e-014 -1.70955e-014
lhumerus -36.6809 0.448691 76.8499
lradius 51.329
lwrist 14.8562
lhand -21.6359 7.21245
lfingers 7.12502
lthumb 4.76033 37.139
rfemur -13.1835 13.9836 25.7414
rtibia 35.1559
rfoot -24.7832 -27.561
rtoes -14.3595
lfemur -14.3688 -17.8724 -17.7376
ltibia 35.4563
lfoot -19.1038 14.2023
ltoes -7.80533
116
root 33.0106 15.363 1.36305 1.43178 94.861 2.85548
lowerback 10.306 1.53885 0.965811
upperback 6.2993 2.4061 -1.5831
thorax 0.886967 1.38504 -2.40027
lowerneck 1.70784 16.4294 16.8518
upperneck -2.46775 22.5213 -18.7398
head 3.07638 11.3288 -7.01378
rclavicle -4.04527e-014 2.3059e-014
rhumerus -55.7405 10.2721 -85.5276
rradius 79.237
rwrist -37.6587
rhand -36.2415 9.78848
rfingers 7.12502
rthumb -9.34286 -19.9845
lclavicle -4.04527e-014 2.3059e-014
lhumerus -36.1251 1.16274 76.0843
lradius 46.8544
lwrist 12.3058
lhand -21.7944 7.59183
lfingers 7.12502
lthumb 4.60726 37.5217
rfemur -12.9227 14.3383 25.88
rtibia 35.0118
rfoot -25.2089 -27.8208
rtoes -14.1359
lfemur -14.013 -18.1952 -17.7771
ltibia 35.1517
lfoot -19.334 14.5768
ltoes -7.86637
117
root 33.0775 15.367 1.38099 1.4218 94.7819 2.67934
lowerback 10.0648 1.69356 1.15875
upperback 6.14215 2.61233 -1.61349
thorax 0.874795 1.48712 -2.55241
lowerneck 2.67906 16.8926 16.3026
upperneck -3.1961 23.113 -17.5984
head 2.58877 11.6677 -6.66997
rclavicle 4.96962e-015 1.23246e-014
rhumerus -55.8046 9.79672 -85.463
rradius 78.8717
rwrist -37.7364
rhand -36.1605 9.86507
rfingers 7.12502
rthumb -9.26472 -19.9114
lclavicle 4.96962e-015 1.23246e-014
lhumerus -35.9866 2.41472 74.9412
lradius 42.6065
lwrist 9.3114
lhand -22.1284 7.39576
lfingers 7.12502
lthumb 4.2848 37.3324
rfemur -12.6743 14.9277 26.0623
rtibia 34.8338
rfoot -25.8167 -28.1798
rtoes -13.2649
lfemur -13.728 -18.5918 -17.7635
ltibia 34.9204
lfoot -19.606 14.9845
ltoes -7.88502
118
root 33.1494 15.367 1.39516 0.485435 94.8402 1.62678
lowerback 9.74449 2.02223 1.44963
upperback 6.15346 3.06701 -1.51865
thorax 1.096 1.72219 -2.64062
lowerneck 3.2911 17.212 16.2238
upperneck -3.48243 23.5819 -17.3922
head 2.44482 11.9287 -6.61315
rclavicle 5.46658e-014 -2.90226e-014
rhumerus -55.8531 8.37519 -84.6321
rradius 79.0516
rwrist -37.6596
rhand -35.914 9.17424
rfingers 7.12502
rthumb -9.02677 -20.6126
lclavicle 5.46658e-014 -2.90226e-014
lhumerus -35.4661 3.54853 74.25
lradius 38.4757
lwrist 5.95307
lhand -22.1984 7.14857
lfingers 7.12502
lthumb 4.21714 37.0866
rfemur -12.309 15.5332 26.1682
rtibia 34.6757
rfoot -26.8859 -28.4093
rtoes -11.5968
lfemur -13.4082 -19.0813 -17.8674
ltibia 34.6958
lfoot -19.9915 15.2989
ltoes -7.5439
119
root 33.219 15.3613 1.40691 1.25825 94.9695 2.37484
lowerback 9.43182 2.15242 1.72362
upperback 6.16838 3.25447 -1.4002
thorax 1.30151 1.82261 -2.67015
lowerneck 3.887 17.5444 16.5715
upperneck -3.48869 24.1201 -17.3835
head 2.47321 12.2157 -6.63393
rclavicle -1.14798e-014 7.95139e-015
rhumerus -55.8077 7.82282 -84.1939
rradius 78.8436
rwrist -37.9772
rhand -35.9054 8.74125
rfingers 7.12502
rthumb -9.01852 -21.046
lclavicle -1.14798e-014 7.95139e-015
lhumerus -35.2401 5.41821 73.0985
lradius 34.7036
lwrist 2.3518
lhand -21.9175 7.25437
lfingers 7.12502
lthumb 4.48843 37.1868
rfemur -11.8724 15.7953 26.4329
rtibia 34.5641
rfoot -27.7858 -28.4504
rtoes -10.5449
lfemur -13.0414 -19.6027 -17.8313
ltibia 34.4635
lfoot -20.6254 15.6722
ltoes -7.7665
120
root 33.2829 15.3609 1.41852 -0.917182 95.1714 0.10591
lowerback 9.04979 2.19949 1.62473
upperback 6.14887 3.30065 -1.36809
thorax 1.48475 1.84155 -2.56622
lowerneck 4.3008 17.7628 16.7566
upperneck -3.37564 24.4721 -17.0437
head 2.47125 12.3968 -6.54962
rclavicle 1.60519e-014 9.54166e-015
rhumerus -55.6507 7.76977 -83.9886
rradius 78.3998
rwrist -38.53
rhand -36.0681 8.00559
rfingers 7.12502
rthumb -9.17551 -21.7748
lclavicle 1.60519e-014 9.54166e-015
lhumerus -35.2638 7.74547 71.6119
lradius 31.3818
lwrist -1.48309
lhand -21.6814 7.39618
lfingers 7.12502
lthumb 4.71639 37.3237
rfemur -11.6068 15.7641 26.342
rtibia 34.5215
rfoot -27.9606 -28.6042
rtoes -11.2535
lfemur -12.7009 -20.0272 -18.0923
ltibia 34.2315
lfoot -20.9957 15.9369
ltoes -7.64715
121
root 33.3392 15.3634 1.4302 -3.86815 95.4825 -2.94792
lowerback 8.69688 2.18152 1.31476
upperback 6.07474 3.24445 -1.34204
thorax 1.57761 1.79994 -2.34677
lowerneck 4.91018 17.8529 17.1711
upperneck -3.33635 24.6945 -16.9216
head 2.45459 12.5235 -6.59012
rclavicle -9.79014e-015 -5.56597e-015
rhumerus -55.6065 7.9078 -83.8915
rradius 77.9956
rwrist -38.9684
rhand -36.2753 7.56489
rfingers 7.12502
rthumb -9.37544 -22.2066
lclavicle -9.79014e-015 -5.56597e-015
lhumerus -35.6313 10.3045 69.9057
lradius 28.6323
lwrist -5.17633
lhand -21.7289 7.39119
lfingers 7.12502
lthumb 4.67055 37.3197
rfemur -11.4338 15.6368 26.122
rtibia 34.5064
rfoot -27.8697 -28.9144
rtoes -12.1629
lfemur -12.3869 -20.2719 -18.455
ltibia 34.0693
lfoot -21.1252 15.9863
ltoes -7.70183
122
root 33.3822 15.3626 1.44123 -3.40965 95.8399 -2.57074
lowerback 8.48376 2.13733 1.33323
upperback 5.98191 3.17624 -1.25334
thorax 1.5896 1.76002 -2.25344
lowerneck 5.42322 17.8247 17.537
upperneck -3.38094 24.7404 -16.8425
head 2.40092 12.5609 -6.65624
rclavicle -2.82771e-014 -1.23246e-014
rhumerus -55.6421 7.89461 -83.8055
rradius 77.631
rwrist -39.0988
rhand -36.3633 7.79734
rfingers 7.12502
rthumb -9.46032 -21.9703
lclavicle -2.82771e-014 -1.23246e-014
lhumerus -36.1814 12.5385 68.2454
lradius 26.6075
lwrist -7.9506
lhand -22.1957 7.28931
lfingers 7.12502
lthumb 4.21975 37.2273
rfemur -11.3328 15.5104 26.2341
rtibia 34.488
rfoot -27.9446 -29.2188
rtoes -12.3342
lfemur -12.253 -20.3825 -18.412
ltibia 34.0092
lfoot -21.1952 15.8642
ltoes -8.12625
123
root 33.4177 15.357 1.45099 -1.0112 96.1836 -0.210936
lowerback 8.39956 2.13374 1.65085
upperback 5.90126 3.18364 -1.12365
thorax 1.5622 1.76678 -2.29593
lowerneck 5.64197 17.7189 17.8088
upperneck -3.35984 24.6447 -16.7877
head 2.38208 12.5177 -6.705
rclavicle -2.48978e-014 6.06293e-015
rhumerus -55.6671 7.68138 -83.6251
rradius 77.3216
rwrist -39.1416
rhand -36.2744 7.86144
rfingers 7.12502
rthumb -9.37455 -21.9101
lclavicle -2.48978e-014 6.06293e-015
lhumerus -36.7199 14.042 66.9411
lradius 25.1999
lwrist -9.31022
lhand -23.2466 6.94688
lfingers 7.12502
lthumb 3.20497 36.9025
rfemur -11.1585 15.6371 26.6236
rtibia 34.4253
rfoot -28.4651 -29.4921
rtoes -11.6274
lfemur -12.2406 -20.4191 -18.1019
ltibia 34.0645
lfoot -21.2927 15.6604
ltoes -8.40776
124
root 33.4469 15.3491 1.46014 1.60763 96.3989 2.33767
lowerback 8.31666 2.1839 1.95816
upperback 5.80853 3.26044 -0.957278
thorax 1.52283 1.80639 -2.29957
lowerneck 5.81906 17.6172 18.0818
upperneck -3.3575 24.5547 -16.8772
head 2.38544 12.4791 -6.78856
rclavicle -3.95085e-015 2.28602e-015
rhumerus -55.7013 7.51895 -83.4086
rradius 77.0994
rwrist -39.2861
rhand -36.1158 7.68338
rfingers 7.12502
rthumb -9.22152 -22.095
lclavicle -3.95085e-015 2.28602e-015
lhumerus -37.4034 15.3892 65.7875
lradius 24.379
lwrist -10.01
lhand -24.5588 6.64105
lfingers 7.12502
lthumb 1.93767 36.612
rfemur -10.986 16.0495 27.0787
rtibia 34.313
rfoot -29.2233 -29.7405
rtoes -10.1024
lfemur -12.3368 -20.3426 -17.7113
ltibia 34.2021
lfoot -21.4156 15.4117
ltoes -8.28006
125
root 33.4741 15.3421 1.46543 2.81248 96.5634 3.49426
lowerback 8.15988 2.22413 2.09211
upperback 5.76534 3.31433 -0.823875
thorax 1.56653 1.8326 -2.23362
lowerneck 6.01232 17.5613 18.3065
upperneck -3.44629 24.52 -17.0162
head 2.36945 12.4708 -6.87907
rclavicle 2.42517e-014 -4.96962e-015
rhumerus -55.6594 7.46737 -83.2414
rradius 76.7764
rwrist -39.397
rhand -35.9611 7.44487
rfingers 7.12502
rthumb -9.07223 -22.34
lclavicle 2.42517e-014 -4.96962e-015
lhumerus -38.3384 17.0293 64.525
lradius 24.1626
lwrist -10.8132
lhand -26.9659 4.75383
lfingers 7.12502
lthumb -0.387131 34.7332
rfemur -10.797 16.3483 27.3421
rtibia 34.1984
rfoot -29.8879 -29.8518
rtoes -8.66088
lfemur -12.3857 -20.231 -17.5119
ltibia 34.3321
lfoot -21.5566 15.1883
ltoes -8.38741
126
root 33.5089 15.3327 1.46274 2.08056 96.7213 2.87104
lowerback 8.0106 2.28898 2.16558
upperback 5.7929 3.40257 -0.796056
thorax 1.68497 1.88033 -2.2426
lowerneck 6.11904 17.5214 18.5442
upperneck -3.45566 24.5011 -17.1126
head 2.38848 12.4653 -6.94435
rclavicle -7.04443e-014 1.52567e-014
rhumerus -55.6499 7.29924 -83.1392
rradius 76.3498
rwrist -39.4931
rhand -35.926 7.70272
rfingers 7.12502
rthumb -9.03839 -22.0836
lclavicle -7.04443e-014 1.52567e-014
lhumerus -39.2335 18.2214 63.5009
lradius 24.3784
lwrist -10.8467
lhand -27.8244 4.64531
lfingers 7.12502
lthumb -1.21628 34.6216
rfemur -10.3914 16.2959 27.3741
rtibia 34.1109
rfoot -30.4499 -29.7098
rtoes -7.94955
lfemur -12.1448 -20.1954 -17.6698
ltibia 34.4106
lfoot -21.7622 15.0757
ltoes -8.54841
